<svg width="28" height="28" viewBox="0 0 24 24" xmlns="http://www.w3.org/2000/svg" role="img" aria-label="WhatsApp icon">
  <path fill="#ffffff" d="M20.52 3.48A11.8 11.8 0 0 0 12.015 0C5.39 0 .01 5.38.01 12.005c0 2.108.55 4.153 1.6 5.963L0 24l6.197-1.59a11.95 11.95 0 0 0 5.818 1.493h.005c6.625 0 12.005-5.38 12.005-12.005A11.86 11.86 0 0 0 20.52 3.48zm-8.5 18.06h-.004a9.94 9.94 0 0 1-5.06-1.39l-.36-.214-3.68.945.985-3.59-.234-.37a9.93 9.93 0 0 1-1.55-5.29C2.117 6.49 6.61 2 12.016 2c2.663 0 5.165 1.037 7.05 2.922A9.92 9.92 0 0 1 22 12.005c0 5.505-4.48 9.535-9.98 9.535zM17.3 14.78c-.3-.15-1.77-.87-2.04-.97-.27-.1-.47-.15-.67.15s-.77.97-.95 1.17c-.18.2-.35.22-.65.07-.3-.15-1.26-.46-2.4-1.47-.89-.79-1.49-1.77-1.66-2.07-.17-.3-.02-.46.13-.61.13-.13.3-.35.45-.52.15-.17.2-.3.3-.5.1-.2.05-.37-.02-.52-.07-.15-.67-1.62-.92-2.21-.24-.58-.49-.5-.67-.5h-.57c-.2 0-.52.08-.79.37-.27.3-1.04 1.02-1.04 2.49s1.07 2.88 1.22 3.08c.15.2 2.09 3.19 5.06 4.47.71.31 1.26.49 1.69.62.71.23 1.36.2 1.87.12.57-.08 1.77-.72 2.02-1.42.25-.7.25-1.3.17-1.42-.08-.12-.27-.2-.57-.35z"/>
</svg>

